<?xml version="1.0" encoding="utf-8"?>
<!-- Generator: Adobe Illustrator 26.3.1, SVG Export Plug-In . SVG Version: 6.00 Build 0)  -->
<svg version="1.1" id="Calque_1" xmlns="http://www.w3.org/2000/svg" xmlns:xlink="http://www.w3.org/1999/xlink" x="0px" y="0px"
	 width="979px" height="979px" viewBox="0 0 979 979" style="enable-background:new 0 0 979 979;" xml:space="preserve">
<style type="text/css">
	.st0{fill:none;}
	.st1{fill:#FF3D0B;stroke:#000000;stroke-width:22.0967;stroke-linecap:round;stroke-linejoin:round;stroke-miterlimit:10;}
</style>
<rect x="30.2" y="34.9" class="st0" width="917.5" height="908.4"/>
<rect x="0" y="0.1" class="st0" width="977.9" height="977.9"/>
<path class="st1" d="M781.7,393.6c35.9,32.2-2.7,95.7-47.3,114.2c-44.6,18.5-95.8-2.7-114.2-47.3c-13-31.6-12.1-65.4,0-94.6
	c49.3-119.1,1.4-254.4-107.3-317.2c-6.3-3.6-13,4.1-8.6,9.9c31.3,40.9,50,91.8,50.7,147.1c0.6,49.2-39,90.8-88.2,90.4
	c-47.9-0.5-86.6-39.4-86.6-87.4c0-27.3,8.9-52.6,23.9-73c2.6-3.5-1.4-8-5.2-5.9c-69.8,39.3-100.8,125.4-69.4,201.3
	c9.7,23.4,10.5,50.5,0,75.7c-14.8,35.7-55.7,52.6-91.4,37.8c-28.5-11.8-45.1-40.3-43-69.6c0.4-6-7.1-9-11-4.5
	C73.4,498.2,78.8,691.7,200.2,813.2h0c160.5,160.6,420.9,160.6,581.5,0.1l0-0.1C897.6,697.3,897.6,509.5,781.7,393.6
	C781.7,393.6,781.7,393.6,781.7,393.6z"/>
</svg>
