<?xml version="1.0" encoding="utf-8"?>
<!-- Generator: Adobe Illustrator 26.3.1, SVG Export Plug-In . SVG Version: 6.00 Build 0)  -->
<svg version="1.1" id="Calque_1" xmlns="http://www.w3.org/2000/svg" xmlns:xlink="http://www.w3.org/1999/xlink" x="0px" y="0px"
	 width="979px" height="979px" viewBox="0 0 979 979" style="enable-background:new 0 0 979 979;" xml:space="preserve">
<style type="text/css">
	.st0{opacity:0.3;fill:none;}
	.st1{opacity:0.3;fill:#FFFFFF;}
	.st2{opacity:0.3;}
</style>
<rect x="30.2" y="34.9" class="st0" width="917.5" height="908.4"/>
<rect y="0.1" class="st0" width="977.9" height="977.9"/>
<path class="st1" d="M590.1,783.8c0-25.2-26-50.9-51.6-50.9H502h-18.2c-13.4,0-24.4-11-24.4-24.4s11-24.4,24.4-24.4h120.6
	c25.4,0,46-19.1,46-42.6s-20.7-42.6-46-42.6H483.8c-13.4,0-24.4-11-24.4-24.4s11-24.4,24.4-24.4h115.6c26.2,0,51-23.3,51-47.9
	c0-25.1-25.3-49.6-51-49.6H489.8c-13.4,0-24.4-11-24.4-24.4s11-24.4,24.4-24.4h353.1c24,0,48.7-16,48.7-42.5
	c0-26.4-25.3-42.7-48.7-42.7H416.7c-9.2,0-17.6-5.2-21.9-13.5c-4-8.3-3.2-18.3,2.4-25.6l55-72.6c0.7-1,1.5-1.8,2.2-2.6
	c17.9-17.9,17.9-47.1,0-65l0,0c-8.6-8.6-20.2-13.5-32.5-13.5s-23.9,4.9-32.5,13.5L132.8,416.4c-4.3,5.8-31.5,45.8-38.2,97.1
	c-5.9,45.2-12.5,158.8,53.1,237.9c39.2,47.5,98.5,73.8,176.1,78.4h220.4C569.6,829.9,590.1,809.2,590.1,783.8z"/>
<path class="st2" d="M638.8,783.8c0-18.8-6.3-36.9-16.7-52.5c43.8-8,77-45.2,77-89.6c0-27.5-12.8-52.2-32.9-69
	c20-17.9,32.9-43.1,32.9-70.3c0-17.8-5.5-34.7-14.6-49.6h158.4c53.7,0,97.4-40.9,97.4-91.2c0-50.4-43.7-91.4-97.4-91.4H465.7
	l24.5-32.3c17-17.8,26.5-41,26.5-65.6c0-25.3-9.9-49.1-27.8-67s-41.6-27.8-67-27.8c-25.3,0-49.1,9.9-67.6,28.4L96.1,384.3
	c-0.5,0.6-1,1.2-1.5,1.8c-1.6,2.1-39.5,52.4-48.5,121.2c-1.9,14.7-3.9,35.9-3.9,60.8c0,62.1,12.2,147.5,67.8,214.6
	c48.5,58.4,119.6,90.7,211.5,96h1.3h221.1C596.3,878.6,638.8,836.1,638.8,783.8z M323.7,829.9c-77.6-4.6-136.9-30.9-176.1-78.4
	c-65.6-79.2-58.9-192.8-53.1-238c6.7-51.3,34-91.2,38.2-97.1l256.7-276.8c8.6-8.6,20.2-13.5,32.5-13.5s23.9,4.9,32.5,13.5l0,0
	c17.9,17.9,17.9,47.1,0,65c-0.7,0.7-1.5,1.6-2.2,2.6l-55,72.6c-5.6,7.3-6.5,17.3-2.4,25.6c4.3,8.3,12.7,13.5,21.9,13.5h426.2
	c23.4,0,48.7,16.3,48.7,42.7c0,26.5-24.7,42.5-48.7,42.5H489.8c-13.4,0-24.4,11-24.4,24.4s11,24.4,24.4,24.4h109.6
	c25.7,0,51,24.5,51,49.6c0,24.6-24.8,47.9-51,47.9H483.8c-13.4,0-24.4,11-24.4,24.4s11,24.4,24.4,24.4h120.6c25.3,0,46,19.1,46,42.6
	s-20.6,42.6-46,42.6H483.8c-13.4,0-24.4,11-24.4,24.4s11,24.4,24.4,24.4H502h36.5c25.6,0,51.6,25.7,51.6,50.9c0,25.3-20.6,46-46,46
	H323.7V829.9z"/>
</svg>
