<?xml version="1.0" encoding="utf-8"?>
<!-- Generator: Adobe Illustrator 26.3.1, SVG Export Plug-In . SVG Version: 6.00 Build 0)  -->
<svg version="1.1" id="Calque_1" xmlns="http://www.w3.org/2000/svg" xmlns:xlink="http://www.w3.org/1999/xlink" x="0px" y="0px"
	 width="979px" height="979px" viewBox="0 0 979 979" style="enable-background:new 0 0 979 979;" xml:space="preserve">
<style type="text/css">
	.st0{fill:#FFB600;}
	.st1{fill:#070500;}
	.st2{fill:none;}
</style>
<g>
	<path d="M481.1,869.7C292.5,869.7,139,716.2,139,527.6h11c0,182.6,148.6,331.2,331.2,331.2s331.2-148.6,331.2-331.2h11
		C823.3,716.2,669.8,869.7,481.1,869.7z"/>
	<g>
		<circle class="st0" cx="489.3" cy="489.5" r="474.8"/>
		<path d="M489.3,977.1C220.4,977.1,1.7,758.3,1.7,489.5S220.4,1.8,489.3,1.8s487.6,218.7,487.6,487.6S758.2,977.1,489.3,977.1z
			 M489.3,27.4c-254.8,0-462.1,207.3-462.1,462.1s207.3,462.1,462.1,462.1c254.8,0,462.1-207.3,462.1-462.1S744.1,27.4,489.3,27.4z"
			/>
	</g>
	<g>
		<path d="M485.6,821.5c-164.7,0-298.7-134-298.7-298.7h21.9c0,152.7,124.2,276.9,276.9,276.9c152.7,0,276.9-124.2,276.9-276.9h21.9
			C784.3,687.5,650.3,821.5,485.6,821.5z"/>
		<path d="M230.5,545.4c-2.8,0-5.6-1.1-7.7-3.2c-6.5-6.5-15.1-10.1-24.3-10.1c-9.2,0-17.8,3.6-24.3,10.1c-4.3,4.3-11.2,4.3-15.5,0
			c-4.3-4.3-4.3-11.2,0-15.5c10.6-10.6,24.8-16.5,39.8-16.5s29.2,5.9,39.8,16.5c4.3,4.3,4.3,11.2,0,15.5
			C236,544.4,233.2,545.4,230.5,545.4z"/>
		<path d="M805.3,545.4c-2.8,0-5.6-1.1-7.7-3.2c-13.4-13.4-35.3-13.4-48.7,0c-4.3,4.3-11.2,4.3-15.5,0c-4.3-4.3-4.3-11.2,0-15.5
			c21.9-21.9,57.6-21.9,79.6,0c4.3,4.3,4.3,11.2,0,15.5C810.9,544.4,808.1,545.4,805.3,545.4z"/>
	</g>
	<g>
		<path class="st1" d="M604.6,272.7c-26.3,0-48.3,38.9-53.5,90.6l53.5,23.6l-53.5,23.6c5.2,51.8,27.2,90.6,53.5,90.6
			c30.2,0,54.7-51.1,54.7-114.2C659.3,323.9,634.8,272.7,604.6,272.7z"/>
	</g>
	<g>
		<path class="st1" d="M360.2,272.7c-26.3,0-48.3,38.9-53.5,90.6l53.5,23.6l-53.5,23.6c5.2,51.8,27.2,90.6,53.5,90.6
			c30.2,0,54.7-51.1,54.7-114.2C414.9,323.9,390.4,272.7,360.2,272.7z"/>
	</g>
</g>
<rect x="-3.2" y="1.8" class="st2" width="985" height="975.2"/>
</svg>
