<?xml version="1.0" encoding="utf-8"?>
<!-- Generator: Adobe Illustrator 26.3.1, SVG Export Plug-In . SVG Version: 6.00 Build 0)  -->
<svg version="1.1" id="Calque_1" xmlns="http://www.w3.org/2000/svg" xmlns:xlink="http://www.w3.org/1999/xlink" x="0px" y="0px"
	 width="979px" height="979px" viewBox="0 0 979 979" style="enable-background:new 0 0 979 979;" xml:space="preserve">
<style type="text/css">
	.st0{fill:#FFB600;}
	.st1{fill:#070500;}
	.st2{fill:none;}
	.st3{fill:#FFFFFF;}
</style>
<g>
	<path d="M481.1,869.7C292.5,869.7,139,716.2,139,527.6h11c0,182.6,148.6,331.2,331.2,331.2s331.2-148.6,331.2-331.2h11
		C823.3,716.2,669.8,869.7,481.1,869.7z"/>
	<g>
		<circle class="st0" cx="489.3" cy="489.5" r="474.8"/>
		<path d="M489.3,977.1C220.4,977.1,1.7,758.3,1.7,489.5S220.4,1.8,489.3,1.8s487.6,218.7,487.6,487.6S758.2,977.1,489.3,977.1z
			 M489.3,27.4c-254.8,0-462.1,207.3-462.1,462.1s207.3,462.1,462.1,462.1s462.1-207.3,462.1-462.1S744.1,27.4,489.3,27.4z"/>
	</g>
	<g>
		<path d="M485.6,821.5c-164.7,0-298.7-134-298.7-298.7h21.9c0,152.7,124.2,276.9,276.9,276.9s276.9-124.2,276.9-276.9h21.9
			C784.3,687.5,650.3,821.5,485.6,821.5z"/>
		<path d="M230.5,545.4c-2.8,0-5.6-1.1-7.7-3.2c-6.5-6.5-15.1-10.1-24.3-10.1s-17.8,3.6-24.3,10.1c-4.3,4.3-11.2,4.3-15.5,0
			s-4.3-11.2,0-15.5c10.6-10.6,24.8-16.5,39.8-16.5s29.2,5.9,39.8,16.5c4.3,4.3,4.3,11.2,0,15.5C236,544.4,233.2,545.4,230.5,545.4z
			"/>
		<path d="M805.3,545.4c-2.8,0-5.6-1.1-7.7-3.2c-13.4-13.4-35.3-13.4-48.7,0c-4.3,4.3-11.2,4.3-15.5,0s-4.3-11.2,0-15.5
			c21.9-21.9,57.6-21.9,79.6,0c4.3,4.3,4.3,11.2,0,15.5C810.9,544.4,808.1,545.4,805.3,545.4z"/>
	</g>
	<g>
		<path class="st1" d="M604.6,272.7c-26.3,0-48.3,38.9-53.5,90.6l53.5,23.6l-53.5,23.6c5.2,51.8,27.2,90.6,53.5,90.6
			c30.2,0,54.7-51.1,54.7-114.2C659.3,323.9,634.8,272.7,604.6,272.7z"/>
	</g>
	<g>
		<path class="st1" d="M360.2,272.7c-26.3,0-48.3,38.9-53.5,90.6l53.5,23.6l-53.5,23.6c5.2,51.8,27.2,90.6,53.5,90.6
			c30.2,0,54.7-51.1,54.7-114.2C414.9,323.9,390.4,272.7,360.2,272.7z"/>
	</g>
</g>
<rect x="-3.2" y="1.8" class="st2" width="985" height="975.2"/>
<g>
	<path d="M868,160c4.1-12.7,2.1-26.8,2.1-26.8c-1.7-29.2-25.5-48.5-25.5-48.5"/>
	<path d="M501.1,141.2c-1.1,15.5,12.7,70.2,53.2,81.4"/>
	<polygon points="888.3,161.2 899.3,172.3 929.8,170.4 921.3,157.6 	"/>
	<polygon points="941.9,67.5 951.2,88.5 928.1,97.4 	"/>
	<path d="M949.3,177.2H903l-1.9-88.7h50.2L949.3,177.2z M949.3,188.8v34.7H903v-34.7H949.3z"/>
	<path d="M600.1,229c-59.4,0-84.9-22.6-84.9-69.6V92.1h50.2v67.3c0,14.5,5.2,27.2,34.7,27.2c29.5,0,34.7-12.9,34.7-27.2V92.1H685
		v67.3C685,206.3,659.3,229,600.1,229z"/>
	<path d="M870.5,143.8c0,30.1-21,51.7-51.7,51.7h-55.9v31.6h-50.2v-135h106.1C849.5,92.1,870.5,113.7,870.5,143.8z M820.4,143.8
		c0-9.3-6.2-9.3-11.2-9.3h-46.3V153h46.3C814.2,153,820.4,153,820.4,143.8z"/>
	<g>
		<path class="st3" d="M586.8,206.6c-59.4,0-84.9-22.6-84.9-69.6V69.6h50.2v67.3c0,14.5,5.2,27.2,34.7,27.2
			c29.5,0,34.7-12.9,34.7-27.2V69.6h50.2v67.3C671.7,183.8,646,206.6,586.8,206.6z"/>
		<path d="M586.8,209.2c-59.7,0-87.6-23-87.6-72.3v-70h55.5v70c0,12.7,3.9,24.5,32,24.5c28.2,0,32-11.8,32-24.5v-70h55.5v70
			C674.3,186.3,646.5,209.2,586.8,209.2z M504.6,72.3v64.6c0,46.3,25.4,67,82.2,67c56.8,0,82.2-20.6,82.2-67V72.3h-44.8v64.6
			c0,12.8-3.9,29.9-37.4,29.9c-33.1,0-37.4-16-37.4-29.9V72.3H504.6z"/>
	</g>
	<g>
		<path class="st3" d="M857.2,121.3c0,30.1-21,51.7-51.7,51.7h-55.9v31.6h-50.2v-135h106.1C836.2,69.6,857.2,91.2,857.2,121.3z
			 M807.1,121.3c0-9.3-6.2-9.3-11.2-9.3h-46.3v18.5h46.3C800.9,130.6,807.1,130.6,807.1,121.3z"/>
		<path d="M752.3,207.3h-55.5V66.9h108.8c32,0,54.4,22.4,54.4,54.4s-22.4,54.4-54.4,54.4h-53.3V207.3z M702.1,202h44.8v-31.6h58.6
			c28.9,0,49-20.2,49-49s-20.2-49-49-49H702.1V202z M795.9,133.2h-49v-23.9h49c4.8,0,13.9,0,13.9,11.9S800.7,133.2,795.9,133.2z
			 M752.3,127.9h43.6c5.6,0,8.5-0.3,8.5-6.6c0-6.3-2.9-6.6-8.5-6.6h-43.6V127.9z"/>
	</g>
	<g>
		<path class="st3" d="M937,158.3h-46.3l-1.9-88.7h50.2L937,158.3z M937,169.9v34.7h-46.3v-34.7H937z"/>
		<path d="M939.6,207.3H888v-40.1h51.7V207.3z M893.3,202h40.9v-29.4h-40.9V202z M939.6,161H888l-2-94.1h55.6L939.6,161z
			 M893.3,155.7h41.1l1.8-83.4h-44.7L893.3,155.7z"/>
	</g>
	<polygon points="554.7,67.1 565.8,90.8 565.3,121.9 554.2,102.1 	"/>
	<polyline points="680.6,79.1 685.3,87.9 684.9,120.2 673.8,102 674.3,67 680.6,79.1 	"/>
	<polyline points="937,169.9 949.3,188.8 943.3,207.3 937.8,208.8 	"/>
	<polygon points="887.7,207.3 903,223.5 942.6,223.7 930.4,203.8 	"/>
	<polygon points="696.8,207.1 711.7,227.1 753.7,227.3 737.8,205.7 	"/>
</g>
</svg>
