<?xml version="1.0" encoding="utf-8"?>
<!-- Generator: Adobe Illustrator 26.3.1, SVG Export Plug-In . SVG Version: 6.00 Build 0)  -->
<svg version="1.1" id="Calque_1" xmlns="http://www.w3.org/2000/svg" xmlns:xlink="http://www.w3.org/1999/xlink" x="0px" y="0px"
	 width="979px" height="979px" viewBox="0 0 979 979" style="enable-background:new 0 0 979 979;" xml:space="preserve">
<style type="text/css">
	.st0{fill:#FFB600;}
	.st1{fill:#070500;}
	.st2{fill:none;}
</style>
<g>
	<path d="M481.3,843.2c-175.7,0-318.7-143-318.7-318.7h10.2c0,170.1,138.4,308.5,308.5,308.5s308.5-138.4,308.5-308.5H800
		C800,700.3,657.1,843.2,481.3,843.2z"/>
	<g>
		<circle class="st0" cx="488.9" cy="489.1" r="442.3"/>
		<path d="M488.9,943.3c-250.5,0-454.2-203.8-454.2-454.2S238.5,34.9,488.9,34.9s454.2,203.8,454.2,454.2S739.4,943.3,488.9,943.3z
			 M488.9,58.7c-237.3,0-430.4,193.1-430.4,430.4s193.1,430.4,430.4,430.4c237.3,0,430.4-193.1,430.4-430.4S726.3,58.7,488.9,58.7z"
			/>
	</g>
	<g>
		<path d="M485.5,798.3c-153.4,0-278.3-124.8-278.3-278.3h20.4c0,142.2,115.7,257.9,257.9,257.9c142.2,0,257.9-115.7,257.9-257.9
			h20.4C763.8,673.5,638.9,798.3,485.5,798.3z"/>
		<path d="M247.8,541.2c-2.6,0-5.2-1-7.2-3c-6.1-6.1-14.1-9.4-22.7-9.4c-8.6,0-16.6,3.3-22.7,9.4c-4,4-10.4,4-14.4,0
			c-4-4-4-10.4,0-14.4c9.9-9.9,23.1-15.4,37.1-15.4s27.2,5.5,37.1,15.4c4,4,4,10.4,0,14.4C253,540.2,250.4,541.2,247.8,541.2z"/>
		<path d="M783.3,541.2c-2.6,0-5.2-1-7.2-3c-12.5-12.5-32.8-12.5-45.3,0c-4,4-10.4,4-14.4,0c-4-4-4-10.4,0-14.4
			c20.4-20.4,53.7-20.4,74.1,0c4,4,4,10.4,0,14.4C788.5,540.2,785.9,541.2,783.3,541.2z"/>
	</g>
	<g>
		<path class="st1" d="M596.4,287.2c-24.5,0-45,36.2-49.8,84.4l49.8,22l-49.8,22c4.9,48.2,25.3,84.4,49.8,84.4
			c28.1,0,50.9-47.6,50.9-106.4C647.3,334.8,624.5,287.2,596.4,287.2z"/>
	</g>
	<g>
		<path class="st1" d="M368.7,287.2c-24.5,0-45,36.2-49.8,84.4l49.8,22l-49.8,22c4.9,48.2,25.3,84.4,49.8,84.4
			c28.1,0,50.9-47.6,50.9-106.4C419.6,334.8,396.8,287.2,368.7,287.2z"/>
	</g>
</g>
<rect x="30.2" y="34.9" class="st2" width="917.5" height="908.4"/>
<rect x="0" y="0.1" class="st2" width="977.9" height="977.9"/>
</svg>
