<?xml version="1.0" encoding="iso-8859-1"?>
<!-- Generator: Adobe Illustrator 26.3.1, SVG Export Plug-In . SVG Version: 6.00 Build 0)  -->
<svg version="1.1" id="Calque_1" xmlns="http://www.w3.org/2000/svg" xmlns:xlink="http://www.w3.org/1999/xlink" x="0px" y="0px"
	 width="978.991px" height="978.991px" viewBox="0 0 978.991 978.991" enable-background="new 0 0 978.991 978.991"
	 xml:space="preserve">
<g>
	<path d="M481.115,869.693c-188.655,0-342.137-153.482-342.137-342.137h10.955c0,182.614,148.568,331.182,331.182,331.182
		S812.297,710.17,812.297,527.556h10.955C823.252,716.211,669.769,869.693,481.115,869.693z"/>
	<g>
		<circle fill="#FFB600" cx="489.29" cy="489.469" r="474.842"/>
		<path d="M489.29,977.094c-268.877,0-487.623-218.746-487.623-487.624S220.413,1.846,489.29,1.846S976.912,220.592,976.912,489.47
			S758.167,977.094,489.29,977.094z M489.29,27.408c-254.782,0-462.061,207.281-462.061,462.062S234.508,951.532,489.29,951.532
			c254.78,0,462.061-207.281,462.061-462.062S744.07,27.408,489.29,27.408z"/>
	</g>
	<g>
		<path d="M485.611,821.472c-164.726,0-298.739-134.015-298.739-298.741h21.853c0,152.676,124.21,276.888,276.886,276.888
			c152.673,0,276.884-124.212,276.884-276.888h21.853C784.349,687.458,650.334,821.472,485.611,821.472z"/>
		<path d="M230.452,545.437c-2.796,0-5.593-1.066-7.726-3.202c-6.501-6.501-15.144-10.081-24.337-10.081
			c-9.193,0-17.836,3.58-24.337,10.081c-4.265,4.272-11.183,4.269-15.452,0.004c-4.267-4.269-4.267-11.187,0-15.452
			c10.627-10.631,24.758-16.483,39.789-16.483s29.162,5.852,39.789,16.483c4.267,4.265,4.267,11.183,0,15.452
			C236.043,544.37,233.248,545.437,230.452,545.437z"/>
		<path d="M805.314,545.437c-2.796,0-5.592-1.066-7.728-3.199c-13.416-13.423-35.255-13.423-48.67,0
			c-4.272,4.265-11.183,4.265-15.456,0c-4.265-4.269-4.265-11.187,0-15.456c21.946-21.939,57.636-21.939,79.582,0
			c4.265,4.269,4.265,11.187,0,15.456C810.906,544.37,808.11,545.437,805.314,545.437z"/>
	</g>
	<g>
		<path fill="#070500" d="M604.629,272.725c-26.323,0-48.296,38.867-53.503,90.628l53.503,23.606l-53.503,23.606
			c5.207,51.761,27.18,90.628,53.503,90.628c30.198,0,54.679-51.144,54.679-114.234
			C659.308,323.869,634.827,272.725,604.629,272.725z"/>
	</g>
	<g>
		<path fill="#070500" d="M360.19,272.725c-26.323,0-48.296,38.867-53.503,90.628l53.503,23.606l-53.503,23.606
			c5.207,51.761,27.18,90.628,53.503,90.628c30.198,0,54.679-51.144,54.679-114.234C414.868,323.869,390.388,272.725,360.19,272.725
			z"/>
	</g>
</g>
<rect x="-3.221" y="1.846" fill="none" width="985.021" height="975.249"/>
<g>
</g>
<g>
</g>
<g>
</g>
<g>
</g>
<g>
</g>
<g>
</g>
<g>
</g>
<g>
</g>
<g>
</g>
<g>
</g>
<g>
</g>
<g>
</g>
<g>
</g>
<g>
</g>
<g>
</g>
</svg>
