<?xml version="1.0" encoding="utf-8"?>
<!-- Generator: Adobe Illustrator 26.3.1, SVG Export Plug-In . SVG Version: 6.00 Build 0)  -->
<svg version="1.1" id="Calque_1" xmlns="http://www.w3.org/2000/svg" xmlns:xlink="http://www.w3.org/1999/xlink" x="0px" y="0px"
	 width="944.8px" height="942.2px" viewBox="0 0 944.8 942.2" style="enable-background:new 0 0 944.8 942.2;" xml:space="preserve"
	>
<style type="text/css">
	.st0{fill:#FFFFFF;}
	.st1{fill:none;}
</style>
<g>
	<path class="st0" d="M799.7,471c0,4.7-3.9,8.5-8.6,8.5c-66.2,0-124.4,0.6-168.3,5.4c-44.3,4.9-72.7,13.8-92.1,29
		c-19.6,15.4-31.5,38.4-38.6,74.5c-7.1,36.6-8.9,85.7-9.3,148.3l0,62.1c0,4.2-3.4,7.5-7.5,7.5h-5.2c-4.6,0-8.3-3.7-8.3-8.3v-61.4
		c-0.4-62.5-2.2-111.6-9.3-148.2c-7-36.1-18.9-59.1-38.6-74.5c-19.4-15.2-47.8-24.1-92.1-29c-43.8-4.8-102.1-5.4-168.3-5.4
		c-4.7,0-8.6-3.8-8.6-8.5v0c0-4.7,3.9-8.5,8.6-8.5c66.2,0,124.4-0.6,168.3-5.4c44.3-4.9,72.7-13.8,92.1-29
		c19.6-15.4,31.5-38.4,38.6-74.5c7.1-36.6,8.9-85.7,9.3-148.3l0-61.1c0-4.7,3.8-8.5,8.5-8.5h4c4.7,0,8.5,3.8,8.5,8.5v61.2
		c0.4,62.5,2.2,111.6,9.3,148.2c7,36.1,18.9,59.1,38.6,74.5c19.4,15.2,47.8,24.1,92.1,29c43.8,4.8,102.1,5.4,168.3,5.4
		C795.8,462.5,799.7,466.3,799.7,471L799.7,471z"/>
	<path d="M475.4,823.5h-5.2c-14,0-25.5-11.4-25.5-25.4v-61.4c-0.4-61.4-2.1-109.6-9-144.9c-6.2-31.8-16.2-51.6-32.3-64.3
		c-16.7-13.1-42.4-20.9-83.3-25.4c-44.1-4.8-103.9-5.3-166.4-5.3c-14.2,0-25.7-11.5-25.7-25.7c0-14.1,11.5-25.6,25.7-25.7
		c62.5,0,122.2-0.5,166.5-5.3c40.9-4.5,66.6-12.3,83.3-25.4c16.2-12.7,26.1-32.5,32.3-64.3c6.8-35.3,8.5-83.5,9-145.1v-61
		c0-14.2,11.5-25.7,25.7-25.7h4c14.2,0,25.7,11.5,25.7,25.7v61.2c0.4,61.4,2.1,109.6,9,144.9c6.2,31.8,16.2,51.6,32.3,64.3
		c16.7,13.1,42.4,20.9,83.3,25.4c44.1,4.8,103.9,5.3,166.4,5.3c14.2,0,25.7,11.5,25.7,25.7c0,14.2-11.6,25.7-25.7,25.7
		c-62.5,0-122.3,0.5-166.4,5.3c-40.9,4.5-66.6,12.3-83.3,25.4c-16.2,12.7-26.1,32.5-32.3,64.3c-6.8,35.3-8.5,83.5-9,145.1v62
		C500.1,812.4,489,823.5,475.4,823.5z M347.3,471c34.9,5.8,59.3,15.1,77.5,29.4c23.1,18.1,37,44.3,44.8,84.7
		c1.1,5.6,2.1,11.6,2.9,17.7c0.9-6.2,1.8-12.1,2.9-17.7c7.9-40.5,21.7-66.6,44.8-84.7c18.2-14.3,42.6-23.6,77.5-29.4
		c-34.9-5.8-59.3-15.1-77.5-29.4c-23.1-18.1-37-44.3-44.8-84.7c-1.1-5.7-2.1-11.6-2.9-17.8c-0.9,6.2-1.8,12.1-2.9,17.7
		c-7.9,40.5-21.7,66.6-44.8,84.7C406.5,455.9,382.1,465.3,347.3,471z"/>
</g>
<rect x="32.1" y="30.7" class="st1" width="880.8" height="880.8"/>
</svg>
